<svg width="60" height="60" viewBox="0 0 60 60" fill="none" xmlns="http://www.w3.org/2000/svg">
<path d="M58.1083 40.3835C60.6306 33.6903 60.6306 26.308 58.1083 19.6148C58.0723 19.479 58.0237 19.3469 57.9629 19.2202C55.784 13.57 51.9474 8.71077 46.9568 5.28059C41.9662 1.85041 36.0549 0.009644 29.9991 0H29.9852C23.9252 0.0128404 18.0109 1.85916 13.0199 5.29622C8.02881 8.73328 4.19464 13.6002 2.0214 19.2572C1.97731 19.3544 1.94029 19.4546 1.91064 19.5571C-0.636879 26.2854 -0.636879 33.7129 1.91064 40.4412C1.94029 40.5437 1.97731 40.644 2.0214 40.7412C4.18553 46.4035 8.01686 51.2758 13.009 54.7143C18.0012 58.1528 23.9193 59.9956 29.981 59.9991C36.0428 60.0026 41.963 58.1667 46.9591 54.7339C51.9553 51.3012 55.7922 46.4333 57.9629 40.7735C58.0234 40.6483 58.0721 40.5177 58.1083 40.3835ZM22.2339 37.4297C21.1816 32.5319 21.1816 27.4664 22.2339 22.5686H37.7642C38.8166 27.4664 38.8166 32.5319 37.7642 37.4297H22.2339ZM36.4997 42.045C35.0042 46.4006 32.8085 50.4833 29.9991 54.1323C27.1937 50.4822 25.0012 46.3997 23.5077 42.045H36.4997ZM4.61518 29.9992C4.61728 27.4801 4.99607 24.9756 5.73899 22.5686H17.5333C16.6072 27.479 16.6072 32.5193 17.5333 37.4297H5.73899C4.99607 35.0227 4.61728 32.5182 4.61518 29.9992ZM23.5077 17.9533C25.0048 13.5979 27.2011 9.51535 30.0106 5.86599C32.816 9.5158 35.0077 13.5984 36.4997 17.9533H23.5077ZM42.4833 22.5686H54.2776C55.7668 27.4104 55.7668 32.5879 54.2776 37.4297H42.4718C43.401 32.5196 43.401 27.4787 42.4718 22.5686H42.4833ZM52.3461 17.9533H41.3849C40.009 13.3947 37.9294 9.0789 35.2212 5.16216C38.83 5.92754 42.2293 7.46779 45.1842 9.67634C48.139 11.8849 50.5787 14.709 52.3346 17.9533H52.3461ZM24.7769 5.16216C22.068 9.07874 19.9875 13.3945 18.6109 17.9533H7.66124C9.41723 14.7087 11.8573 11.8843 14.8126 9.67572C17.7678 7.46714 21.1677 5.92709 24.7769 5.16216ZM7.66124 42.045H18.6109C19.9875 46.6038 22.068 50.9196 24.7769 54.8362C21.1677 54.0712 17.7678 52.5312 14.8126 50.3226C11.8573 48.114 9.41723 45.2896 7.66124 42.045ZM35.2212 54.8362C37.9294 50.9194 40.009 46.6037 41.3849 42.045H52.3346C50.5787 45.2893 48.139 48.1134 45.1842 50.322C42.2293 52.5305 38.83 54.0708 35.2212 54.8362Z" fill="#E67351"/>
</svg>
