<svg width="26" height="26" viewBox="0 0 26 26" fill="none" xmlns="http://www.w3.org/2000/svg">
<path d="M5.37833 11.2858C7.41833 15.295 10.705 18.5675 14.7142 20.6217L17.8308 17.505C18.2133 17.1225 18.78 16.995 19.2758 17.165C20.8625 17.6892 22.5767 17.9725 24.3333 17.9725C25.1125 17.9725 25.75 18.61 25.75 19.3892V24.3333C25.75 25.1125 25.1125 25.75 24.3333 25.75C11.0308 25.75 0.25 14.9692 0.25 1.66667C0.25 0.8875 0.8875 0.25 1.66667 0.25H6.625C7.40417 0.25 8.04167 0.8875 8.04167 1.66667C8.04167 3.4375 8.325 5.1375 8.84917 6.72417C9.005 7.22 8.89167 7.7725 8.495 8.16917L5.37833 11.2858Z" fill="white"/>
</svg>
