<svg width="60" height="58" viewBox="0 0 60 58" fill="none" xmlns="http://www.w3.org/2000/svg">
<path d="M45.3247 4.5208L43.1376 6.7079C42.7983 7.06528 42.165 7.10004 41.7732 6.7079C41.3956 6.33059 41.3956 5.72079 41.7732 5.34347L43.9603 3.15637C44.3376 2.77893 44.9474 2.77893 45.3344 3.15637C45.7118 3.5338 45.7118 4.14348 45.3247 4.5208Z" fill="#DE4AAC"/>
<path d="M48.4801 11.227C48.4607 11.7496 48.0349 12.1561 47.5123 12.1561H47.4736L44.3865 12.0302C43.8542 12.0013 43.4382 11.556 43.4576 11.0142C43.4769 10.5012 43.9027 10.0947 44.4253 10.0947H44.464L47.5511 10.2207C48.0931 10.24 48.4995 10.6948 48.4801 11.227Z" fill="#DE4AAC"/>
<path d="M38.2595 0.930431L38.3854 4.01759C38.4145 4.54978 37.9983 5.00459 37.466 5.02396H37.4177C36.9047 5.02396 36.479 4.61758 36.4596 4.09496L36.324 1.00792C36.3048 0.475622 36.7209 0.0208122 37.2531 0.00143405C37.795 -0.0276284 38.2402 0.388556 38.2595 0.930431Z" fill="#DE4AAC"/>
<path d="M32.093 25.8424L22.6396 16.3899L23.9213 8.49794L39.988 24.5647L32.093 25.8424ZM43.5615 23.9859L42.3441 24.1829L24.3038 6.14356L24.5017 4.9247C24.6282 4.14591 25.5834 3.83761 26.1413 4.39553L44.0913 22.3463C44.6493 22.9044 44.3406 23.8599 43.5615 23.9859ZM39.627 8.8625C41.4992 10.7347 41.7033 13.653 40.2423 15.7595L32.7224 8.2397C34.8299 6.78053 37.752 6.98845 39.627 8.8625ZM16.8728 34.6069C16.0468 35.4319 14.7011 35.4338 13.8751 34.6069C13.0481 33.78 13.0481 32.4351 13.8751 31.6082L15.3815 30.1018C15.4784 30.1987 18.5718 33.2913 18.3801 33.0996L16.8728 34.6069ZM21.7002 33.6826C19.4238 31.4066 17.3503 29.3333 14.7984 26.7818C14.2805 26.2639 14.2805 25.42 14.7984 24.9011L21.6066 18.0938L30.3881 26.8754C21.1284 36.1336 32.7299 24.5339 23.5799 33.6826C23.0771 34.1845 22.2039 34.1863 21.7002 33.6826ZM37.408 38.6432C36.805 38.04 39.9265 41.1676 29.3854 30.6111C28.6305 31.3658 26.4725 33.524 26.3757 33.6207L34.4079 41.6433C35.2306 42.4756 36.5757 42.4756 37.408 41.6433C38.2403 40.8207 38.2403 39.4659 37.408 38.6432Z" fill="#DE4AAC"/>
<path d="M0 50.4667V52.3232C0 54.9111 2.10033 57.0114 4.68823 57.0114H55.3118C57.8997 57.0114 60 54.9111 60 52.3232V50.4667C58.3228 50.4667 68.7286 50.4667 0 50.4667Z" fill="#DE4AAC"/>
<path d="M54.8279 13.3948H43.0987C42.9827 14.6045 42.5665 15.8046 41.8311 16.8593L41.6374 17.1496L42.7214 18.2335H52.8343V43.6948H37.8633C36.6803 44.3542 35.1793 44.3778 33.9536 43.6948H7.16659V18.2335H18.7214L20.6956 16.2594L21.1601 13.3948H5.17299C3.60525 13.3948 2.32788 14.6626 2.32788 16.2303V48.5335H57.673V16.2303C57.673 14.6626 56.3955 13.3948 54.8279 13.3948Z" fill="#DE4AAC"/>
</svg>
